<svg xmlns="http://www.w3.org/2000/svg" width="160" height="22" viewBox="0 0 160 22">
  <path id="Logo" d="M108.1,52.737a2.558,2.558,0,0,1-.867-.7,4.975,4.975,0,0,1-.606-1.077c-.175-.4-.328-.757-.455-1.063l-.009-.023-.71-1.864H98.764l-.713,1.911a9.226,9.226,0,0,1-1.06,2.207A2.347,2.347,0,0,1,95,53a2.788,2.788,0,0,1-1.949-.8,2.585,2.585,0,0,1-.856-1.9,3.667,3.667,0,0,1,.175-1.1c.1-.309.249-.719.463-1.251l5-12.669c.141-.362.313-.8.512-1.31a7.546,7.546,0,0,1,.732-1.446,3.5,3.5,0,0,1,1.2-1.1,4.065,4.065,0,0,1,3.645,0,3.577,3.577,0,0,1,1.195,1.08,6.615,6.615,0,0,1,.665,1.228c.157.38.359.893.6,1.525l5.1,12.581a6.883,6.883,0,0,1,.668,2.435,2.647,2.647,0,0,1-.833,1.888,2.8,2.8,0,0,1-2.011.832A2.684,2.684,0,0,1,108.1,52.737Zm-7.635-9.516h3.247l-1.638-4.476ZM83.953,52.086a3.53,3.53,0,0,1-.76-2.4V44.027H76.464v5.654a3.438,3.438,0,0,1-.805,2.43A2.807,2.807,0,0,1,73.553,53a2.724,2.724,0,0,1-2.111-.914,3.535,3.535,0,0,1-.76-2.4V34.305a3.527,3.527,0,0,1,.753-2.4A2.728,2.728,0,0,1,73.553,31a2.813,2.813,0,0,1,2.113.882,3.432,3.432,0,0,1,.8,2.424v4.683h6.729V34.305a3.484,3.484,0,0,1,.773-2.406,2.744,2.744,0,0,1,2.1-.9,2.81,2.81,0,0,1,2.113.882,3.433,3.433,0,0,1,.8,2.424V49.681a3.438,3.438,0,0,1-.805,2.43A2.807,2.807,0,0,1,86.064,53,2.724,2.724,0,0,1,83.953,52.086Zm-25.57.252a3.355,3.355,0,0,1-1.031-1.4c-.153-.405-.358-1.063-.625-2.011l0-.01-2.288-8.468-2.319,8.477c-.259.922-.461,1.572-.619,1.987a3.449,3.449,0,0,1-1.032,1.412A3.079,3.079,0,0,1,48.427,53a3.3,3.3,0,0,1-1.662-.394,3.009,3.009,0,0,1-1.1-1.1,5.751,5.751,0,0,1-.574-1.406c-.125-.461-.239-.894-.338-1.289L41.5,35.672a8.4,8.4,0,0,1-.322-1.965,2.633,2.633,0,0,1,.808-1.929A2.745,2.745,0,0,1,43.946,31,2.345,2.345,0,0,1,46.2,32.17a8.57,8.57,0,0,1,.741,2.247l1.75,7.79,1.909-7.1a17.684,17.684,0,0,1,.607-1.964,3.6,3.6,0,0,1,1.1-1.476A3.3,3.3,0,0,1,54.442,31a3.162,3.162,0,0,1,2.155.713,3.556,3.556,0,0,1,1.019,1.424c.153.411.349,1.055.6,1.968l1.933,7.12L61.9,34.419a14.138,14.138,0,0,1,.379-1.49,3.151,3.151,0,0,1,.8-1.269A2.5,2.5,0,0,1,64.9,31a2.766,2.766,0,0,1,1.942.763,2.615,2.615,0,0,1,.823,1.944,8.849,8.849,0,0,1-.32,1.959L64.089,48.808c-.232.926-.421,1.591-.579,2.036a3.509,3.509,0,0,1-1,1.461A3.054,3.054,0,0,1,60.418,53,3.1,3.1,0,0,1,58.383,52.338Zm2.027-6.055.014-.061h-.03Zm-11.6,0,.014-.054H48.8Zm-20,5.825a3.46,3.46,0,0,1-.794-2.426V36.412H24.609a3.06,3.06,0,0,1-2.118-.681,2.559,2.559,0,0,1,.038-3.74,3.1,3.1,0,0,1,2.08-.658H37.2a3.089,3.089,0,0,1,2.139.688,2.433,2.433,0,0,1,.8,1.858,2.406,2.406,0,0,1-.815,1.86,3.123,3.123,0,0,1-2.123.673h-3.41V49.681A3.474,3.474,0,0,1,33,52.114,2.758,2.758,0,0,1,30.918,53,2.786,2.786,0,0,1,28.815,52.108ZM13.809,52.1a3.466,3.466,0,0,1-.791-2.416V34.305A3.46,3.46,0,0,1,13.8,31.9a2.749,2.749,0,0,1,2.087-.9A2.81,2.81,0,0,1,18,31.882a3.429,3.429,0,0,1,.8,2.424V49.681a3.457,3.457,0,0,1-.8,2.426A2.8,2.8,0,0,1,15.889,53,2.744,2.744,0,0,1,13.809,52.1Zm123.636.569a2.952,2.952,0,0,1-3.337-3.332V34.664a4.118,4.118,0,0,1,.34-1.777,2.465,2.465,0,0,1,1.24-1.226,4.182,4.182,0,0,1,1.758-.328H147.9a2.9,2.9,0,0,1,2.021.657,2.463,2.463,0,0,1,0,3.552,2.9,2.9,0,0,1-2.021.657H139.89v2.975h7.3a2.83,2.83,0,0,1,1.967.643,2.287,2.287,0,0,1,.745,1.743,2.341,2.341,0,0,1-.722,1.742,2.778,2.778,0,0,1-1.989.671h-7.3v3.734h8.318a2.9,2.9,0,0,1,2.022.672A2.4,2.4,0,0,1,151,50.2a2.364,2.364,0,0,1-.77,1.8,2.9,2.9,0,0,1-2.022.672Zm-18.763,0a2.953,2.953,0,0,1-3.338-3.332V34.305a3.486,3.486,0,0,1,.774-2.406,2.743,2.743,0,0,1,2.1-.9,2.809,2.809,0,0,1,2.113.882,3.432,3.432,0,0,1,.8,2.424V47.6h7.118a3,3,0,0,1,2.086.7,2.428,2.428,0,0,1,.812,1.845,2.388,2.388,0,0,1-.816,1.846,3.055,3.055,0,0,1-2.082.673Zm-124.371,0a3.332,3.332,0,0,1-2.506-.86A3.462,3.462,0,0,1-9,49.335V34.664a3.408,3.408,0,0,1,.834-2.5,3.381,3.381,0,0,1,2.477-.832H.646a15.815,15.815,0,0,1,2.579.186,6.109,6.109,0,0,1,2.158.783A5.756,5.756,0,0,1,6.838,33.54a5.54,5.54,0,0,1,.973,1.671,5.6,5.6,0,0,1,.335,1.93,5.143,5.143,0,0,1-1.9,4.141A5.837,5.837,0,0,1,7.9,42.66a5.466,5.466,0,0,1,1.165,3.533,6.265,6.265,0,0,1-.983,3.439,5.962,5.962,0,0,1-2.668,2.279l-.015.006a9.01,9.01,0,0,1-2.286.589,22.038,22.038,0,0,1-2.827.161Zm2.471-4.787H.126a4.354,4.354,0,0,0,2.479-.55A1.574,1.574,0,0,0,3.23,45.9a1.44,1.44,0,0,0-.621-1.379A5.108,5.108,0,0,0-.007,44H-3.218Zm0-8.534H-.5a6.308,6.308,0,0,0,1.989-.229,1.275,1.275,0,0,0,.732-.639l.017-.031a1.493,1.493,0,0,0,.205-.787c0-.9-.367-1.066-.524-1.138a7.064,7.064,0,0,0-2.833-.4h-2.3Z" transform="translate(9 -31)" fill="#fff"/>
</svg>
